<svg width="24" height="20" viewBox="0 0 24 20" fill="none" xmlns="http://www.w3.org/2000/svg">
<path d="M6.74583 3.22803C4.66485 3.22803 2.97437 4.91357 2.97437 6.99949C2.97437 9.08541 4.65991 10.771 6.74583 10.771C8.83175 10.771 10.5173 9.08541 10.5173 6.99949C10.5173 4.91357 8.82681 3.22803 6.74583 3.22803ZM6.74583 5.7687C6.06865 5.7687 5.51504 6.31737 5.51504 6.99949C5.51504 7.3109 5.26295 7.56299 4.95154 7.56299C4.64014 7.56299 4.38805 7.3109 4.38805 6.99949C4.38805 5.6995 5.44583 4.64665 6.74089 4.64665C7.05229 4.64665 7.30438 4.89874 7.30438 5.21015C7.30438 5.52155 7.05229 5.7687 6.74583 5.7687Z" fill="white"/>
<path d="M17.2546 0.657715C15.1736 0.657715 13.4832 2.34326 13.4832 4.42918C13.4832 6.5151 15.1687 8.20064 17.2546 8.20064C19.3405 8.20064 21.0261 6.5151 21.0261 4.42918C21.0261 2.34326 19.3405 0.657715 17.2546 0.657715ZM17.2546 3.19839C16.5774 3.19839 16.0238 3.74705 16.0238 4.42918C16.0238 4.74058 15.7717 4.99267 15.4603 4.99267C15.1489 4.99267 14.8968 4.74058 14.8968 4.42918C14.8968 3.12918 15.9546 2.07634 17.2497 2.07634C17.5611 2.07634 17.8132 2.32843 17.8132 2.63983C17.8181 2.9463 17.566 3.19839 17.2546 3.19839Z" fill="white"/>
<path d="M23.9968 13.2768V13.1977C23.9968 13.1928 23.9968 13.1878 23.9968 13.1878C23.9622 12.1251 23.7645 11.3935 22.677 10.7114C21.2386 9.80686 19.6322 9.02588 19.6322 9.02588L18.3519 13.0692L17.6055 11.5665C18.9154 9.73766 17.5116 9.64375 17.2645 9.64375C17.2645 9.64375 17.2595 9.64375 17.2546 9.64375C17.2497 9.64375 17.2497 9.64375 17.2447 9.64375C16.9926 9.64375 15.5888 9.73766 16.9037 11.5665L16.1573 13.0692L14.877 9.02588C14.877 9.02588 13.2706 9.80686 11.8322 10.7114C11.501 10.919 11.2539 11.1316 11.066 11.3589C11.585 11.6407 12.1782 11.9818 12.7516 12.3426C13.4485 12.7825 13.928 13.2916 14.2196 13.9046C14.5063 14.5125 14.5706 15.1354 14.5854 15.6692C14.5904 15.7038 14.5904 15.7384 14.5904 15.773V15.8372C14.5953 16.0547 14.5953 16.2772 14.5904 16.5045C14.5904 16.5194 14.5904 16.5293 14.5904 16.5441V16.7715H17.2447H23.9918V13.8452C23.9918 13.8947 23.9918 13.9243 23.9918 13.9243C24.0017 13.697 24.0017 13.4795 23.9968 13.2768ZM23.9869 13.1681C23.9869 13.1483 23.9869 13.1483 23.9869 13.1681V13.1681Z" fill="white"/>
<path d="M13.4831 15.8476V15.7685C13.4831 15.7636 13.4831 15.7586 13.4831 15.7586C13.4534 14.6959 13.2508 13.9643 12.1633 13.2822C10.7249 12.3777 9.11849 11.5967 9.11849 11.5967L7.83827 15.64L7.09188 14.1374C8.40176 12.3085 6.99797 12.2145 6.75082 12.2145C6.75082 12.2145 6.74588 12.2145 6.74093 12.2145C6.73599 12.2145 6.73599 12.2145 6.73105 12.2145C6.47896 12.2145 5.07516 12.3085 6.38999 14.1374L5.6436 15.64L4.36338 11.5967C4.36338 11.5967 2.75692 12.3777 1.31853 13.2822C0.236025 13.9643 0.0383078 14.6959 0.00370721 15.7586C0.00370721 15.7636 0.00370721 15.7636 0.00370721 15.7685V15.8476C-0.00123574 16.0503 -0.00123574 16.2678 0.00370721 16.4951C0.00370721 16.4951 0.00370721 16.4655 0.00370721 16.416V19.3423H6.73599H13.4831V16.416C13.4831 16.4655 13.4831 16.4951 13.4831 16.4951C13.488 16.2678 13.488 16.0503 13.4831 15.8476Z" fill="white"/>
</svg>
