<svg width="20" height="18" viewBox="0 0 20 18" fill="none" xmlns="http://www.w3.org/2000/svg">
<path d="M12.754 7C13.72 7 14.504 7.784 14.504 8.75V13.499C14.504 14.6927 14.0298 15.8376 13.1857 16.6817C12.3416 17.5258 11.1967 18 10.003 18C8.80926 18 7.66441 17.5258 6.82031 16.6817C5.97621 15.8376 5.502 14.6927 5.502 13.499V8.75C5.502 7.784 6.285 7 7.252 7H12.754ZM5.131 7C4.77082 7.43345 4.55417 7.96808 4.511 8.53L4.501 8.75V13.499C4.501 14.346 4.693 15.148 5.035 15.864C4.44228 16.0226 3.82103 16.0427 3.21929 15.9228C2.61756 15.8029 2.05145 15.5463 1.56475 15.1727C1.07805 14.7991 0.683789 14.3185 0.412463 13.7682C0.141138 13.2179 1.22998e-05 12.6126 0 11.999V8.75C1.64046e-05 8.31081 0.165171 7.88768 0.46268 7.56461C0.760189 7.24154 1.1683 7.04214 1.606 7.006L1.75 7H5.131ZM14.875 7H18.25C19.216 7 20 7.784 20 8.75V12C20.0001 12.6132 19.8593 13.2182 19.5884 13.7682C19.3175 14.3183 18.9237 14.7987 18.4376 15.1724C17.9514 15.546 17.3858 15.8029 16.7846 15.9232C16.1833 16.0435 15.5625 16.0239 14.97 15.866C15.27 15.238 15.454 14.546 15.495 13.814L15.504 13.499V8.75C15.504 8.085 15.269 7.475 14.875 7ZM10 0C10.7956 0 11.5587 0.316071 12.1213 0.87868C12.6839 1.44129 13 2.20435 13 3C13 3.79565 12.6839 4.55871 12.1213 5.12132C11.5587 5.68393 10.7956 6 10 6C9.20435 6 8.44129 5.68393 7.87868 5.12132C7.31607 4.55871 7 3.79565 7 3C7 2.20435 7.31607 1.44129 7.87868 0.87868C8.44129 0.316071 9.20435 0 10 0ZM16.5 1C17.163 1 17.7989 1.26339 18.2678 1.73223C18.7366 2.20107 19 2.83696 19 3.5C19 4.16304 18.7366 4.79893 18.2678 5.26777C17.7989 5.73661 17.163 6 16.5 6C15.837 6 15.2011 5.73661 14.7322 5.26777C14.2634 4.79893 14 4.16304 14 3.5C14 2.83696 14.2634 2.20107 14.7322 1.73223C15.2011 1.26339 15.837 1 16.5 1ZM3.5 1C4.16304 1 4.79893 1.26339 5.26777 1.73223C5.73661 2.20107 6 2.83696 6 3.5C6 4.16304 5.73661 4.79893 5.26777 5.26777C4.79893 5.73661 4.16304 6 3.5 6C2.83696 6 2.20107 5.73661 1.73223 5.26777C1.26339 4.79893 1 4.16304 1 3.5C1 2.83696 1.26339 2.20107 1.73223 1.73223C2.20107 1.26339 2.83696 1 3.5 1Z" fill="white"/>
</svg>
