<svg width="23" height="23" viewBox="0 0 23 23" fill="none" xmlns="http://www.w3.org/2000/svg">
<path d="M22.3101 16.251L20.2491 13.1595V9C20.2491 6.61305 19.3009 4.32387 17.613 2.63604C15.9252 0.948212 13.636 0 11.2491 0C8.86212 0 6.57294 0.948212 4.88511 2.63604C3.19728 4.32387 2.24907 6.61305 2.24907 9V13.1595L0.188067 16.251C0.0754797 16.4205 0.0109261 16.6173 0.00126903 16.8206C-0.00838799 17.0238 0.0372125 17.2259 0.133223 17.4053C0.229233 17.5847 0.372065 17.7347 0.546533 17.8394C0.721001 17.9442 0.920585 17.9997 1.12407 18H21.3741C21.5776 17.9997 21.7771 17.9442 21.9516 17.8394C22.1261 17.7347 22.2689 17.5847 22.3649 17.4053C22.4609 17.2259 22.5065 17.0238 22.4969 16.8206C22.4872 16.6173 22.4227 16.4205 22.3101 16.251Z" fill="#ffffff"/>
<path d="M11.249 22.5C12.2465 22.5009 13.2159 22.1696 14.0042 21.5585C14.7925 20.9474 15.355 20.0912 15.6028 19.125H6.89526C7.14306 20.0912 7.70549 20.9474 8.49383 21.5585C9.28217 22.1696 10.2515 22.5009 11.249 22.5Z" fill="#ffffff"/>
</svg>
