<svg width="24" height="24" viewBox="0 0 24 24" fill="none" xmlns="http://www.w3.org/2000/svg">
<path d="M21.3334 7.33317V14.3332C21.3314 16.1891 20.5932 17.9684 19.2809 19.2807C17.9686 20.593 16.1893 21.3311 14.3334 21.3332H7.33341C7.024 21.3332 6.72725 21.4561 6.50846 21.6749C6.28966 21.8937 6.16675 22.1904 6.16675 22.4998C6.16675 22.8093 6.28966 23.106 6.50846 23.3248C6.72725 23.5436 7.024 23.6665 7.33341 23.6665H14.3334C16.8079 23.6637 19.1802 22.6794 20.9299 20.9297C22.6797 19.18 23.6639 16.8077 23.6667 14.3332V7.33317C23.6667 7.02375 23.5438 6.72701 23.325 6.50821C23.1062 6.28942 22.8095 6.1665 22.5001 6.1665C22.1907 6.1665 21.8939 6.28942 21.6751 6.50821C21.4563 6.72701 21.3334 7.02375 21.3334 7.33317Z" fill="#ffffff"/>
<path d="M14.3333 20.1668C15.8798 20.165 17.3625 19.5498 18.456 18.4563C19.5496 17.3627 20.1648 15.88 20.1666 14.3335V6.16683C20.1648 4.62029 19.5496 3.13762 18.456 2.04405C17.3625 0.950484 15.8798 0.335318 14.3333 0.333496H6.16659C4.62005 0.335318 3.13738 0.950484 2.04381 2.04405C0.95024 3.13762 0.335074 4.62029 0.333252 6.16683V14.3335C0.335074 15.88 0.95024 17.3627 2.04381 18.4563C3.13738 19.5498 4.62005 20.165 6.16659 20.1668H14.3333ZM7.11159 8.98328L8.60294 11.0455L13.5407 6.47681C13.768 6.26666 14.0694 6.15538 14.3787 6.16745C14.688 6.17953 14.9798 6.31398 15.1899 6.54121C15.4001 6.76845 15.5114 7.06987 15.4993 7.37915C15.4872 7.68844 15.3528 7.98026 15.1255 8.19041L9.22174 13.6522C9.10056 13.7642 8.957 13.8493 8.80053 13.9017C8.64406 13.9542 8.47825 13.9728 8.31403 13.9565C8.14982 13.9401 7.99094 13.8891 7.8479 13.8068C7.70486 13.7245 7.5809 13.6128 7.48422 13.479L5.22159 10.3504C5.04939 10.0994 4.98212 9.79103 5.03411 9.49112C5.0861 9.19121 5.25324 8.92349 5.49987 8.7451C5.74649 8.5667 6.05307 8.49176 6.35419 8.53626C6.6553 8.58076 6.9271 8.74118 7.11159 8.98328Z" fill="#ffffff"/>
</svg>
