<svg width="20" height="20" viewBox="0 0 20 20" fill="none" xmlns="http://www.w3.org/2000/svg">
<path d="M9.16699 10.8332V13.3332C9.16699 13.5693 9.24699 13.7673 9.40699 13.9273C9.56699 14.0873 9.76477 14.1671 10.0003 14.1665C10.2364 14.1665 10.4345 14.0865 10.5945 13.9265C10.7545 13.7665 10.8342 13.5687 10.8337 13.3332V10.8332H13.3337C13.5698 10.8332 13.7678 10.7532 13.9278 10.5932C14.0878 10.4332 14.1675 10.2354 14.167 9.99984C14.167 9.76373 14.087 9.56567 13.927 9.40567C13.767 9.24567 13.5692 9.16595 13.3337 9.1665H10.8337V6.6665C10.8337 6.43039 10.7537 6.23234 10.5937 6.07234C10.4337 5.91234 10.2359 5.83261 10.0003 5.83317C9.76421 5.83317 9.56616 5.91317 9.40616 6.07317C9.24616 6.23317 9.16644 6.43095 9.16699 6.6665V9.1665H6.66699C6.43088 9.1665 6.23283 9.2465 6.07283 9.4065C5.91283 9.5665 5.8331 9.76428 5.83366 9.99984C5.83366 10.2359 5.91366 10.434 6.07366 10.594C6.23366 10.754 6.43144 10.8337 6.66699 10.8332H9.16699ZM10.0003 18.3332C8.84755 18.3332 7.76421 18.1143 6.75033 17.6765C5.73644 17.2387 4.85449 16.6451 4.10449 15.8957C3.35449 15.1457 2.76088 14.2637 2.32366 13.2498C1.88644 12.2359 1.66755 11.1526 1.66699 9.99984C1.66699 8.84706 1.88588 7.76373 2.32366 6.74984C2.76144 5.73595 3.35505 4.854 4.10449 4.104C4.85449 3.354 5.73644 2.76039 6.75033 2.32317C7.76421 1.88595 8.84755 1.66706 10.0003 1.6665C11.1531 1.6665 12.2364 1.88539 13.2503 2.32317C14.2642 2.76095 15.1462 3.35456 15.8962 4.104C16.6462 4.854 17.24 5.73595 17.6778 6.74984C18.1156 7.76373 18.3342 8.84706 18.3337 9.99984C18.3337 11.1526 18.1148 12.2359 17.677 13.2498C17.2392 14.2637 16.6456 15.1457 15.8962 15.8957C15.1462 16.6457 14.2642 17.2396 13.2503 17.6773C12.2364 18.1151 11.1531 18.3337 10.0003 18.3332Z" fill="#8DC542"/>
</svg>
