<svg width="141" height="179" viewBox="0 0 141 179" fill="none" xmlns="http://www.w3.org/2000/svg">
<path d="M71.6503 75.7944L71.2805 75.8315L88.3673 246.117L88.737 246.079L71.6503 75.7944Z" fill="#FB242D"/>
<path d="M70.4221 74.4023C69.9459 75.3778 69.4466 76.8178 69.3421 77.2591C69.3769 77.2707 69.9924 77.503 71.5485 77.3404C73.0814 77.1778 73.5459 76.8643 73.5924 76.8294C73.2905 76.0862 72.5472 74.983 71.955 74.2397C77.6221 72.2888 97.4919 55.7868 94.937 30.3428C93.1602 12.6446 79.2479 -0.443195 63.8491 1.10133C48.4503 2.64585 37.4064 18.2421 39.1832 35.9402C41.7961 61.9416 64.5111 73.6939 70.4221 74.4139V74.4023Z" fill="#FB242D"/>
<path d="M53.2348 10.1245C53.2348 10.1245 42.5161 19.3568 43.9677 33.8382C45.4193 48.3195 53.0258 57.006 59.111 63.5093C59.111 63.5093 41.1457 38.0072 53.2348 10.1245Z" fill="white"/>
<path d="M41.9512 127.396L41.5967 127.508L92.8601 290.79L93.2146 290.679L41.9512 127.396Z" fill="#FEB937"/>
<path d="M40.4488 126.289C40.1817 127.346 39.9843 128.856 39.9727 129.308C40.0075 129.308 40.6579 129.425 42.1559 128.937C43.6192 128.461 44.014 128.066 44.0488 128.031C43.5959 127.369 42.6553 126.428 41.9121 125.825C47.0682 122.77 63.1754 102.575 55.5108 78.1766C50.1805 61.2101 33.8991 51.2113 19.139 55.8449C4.37898 60.4784 -3.27396 77.9908 2.05639 94.9573C9.88352 119.89 34.5262 126.788 40.4488 126.289Z" fill="#FEB937"/>
<path d="M10.5803 66.8306C10.5803 66.8306 1.95187 78.0487 6.30673 91.9262C10.6616 105.804 19.8707 112.771 27.152 117.904C27.152 117.904 4.39058 96.5713 10.5687 66.8306H10.5803Z" fill="white"/>
<path d="M105.392 135.268L78.1772 304.23L78.5441 304.29L105.759 135.327L105.392 135.268Z" fill="#00D6AD"/>
<path d="M104.924 133.628C104.216 134.453 103.356 135.719 103.147 136.114C103.182 136.137 103.716 136.52 105.261 136.764C106.782 136.996 107.316 136.822 107.363 136.799C107.258 136.009 106.829 134.743 106.445 133.872C112.426 133.443 135.873 122.596 139.937 97.3495C142.759 79.7907 132.667 63.5674 117.396 61.1055C102.125 58.6435 87.4466 70.8836 84.6131 88.4424C80.4556 114.235 99.408 131.434 104.924 133.64V133.628Z" fill="#00D6AD"/>
<path d="M104.808 67.0977C104.808 67.0977 92.0799 73.2641 89.7573 87.6294C87.4463 101.995 92.5561 112.342 96.7716 120.192C96.7716 120.192 85.9599 90.9274 104.796 67.0977H104.808Z" fill="white"/>
</svg>
