<svg width="141" height="179" viewBox="0 0 141 179" fill="none" xmlns="http://www.w3.org/2000/svg">
<path d="M69.5399 75.7936L52.4531 246.079L52.8229 246.116L69.9097 75.8307L69.5399 75.7936Z" fill="#FB242D"/>
<path d="M70.7682 74.4023C71.2443 75.3778 71.7436 76.8178 71.8482 77.2591C71.8133 77.2707 71.1978 77.503 69.6417 77.3404C68.1088 77.1778 67.6443 76.8643 67.5978 76.8294C67.8997 76.0862 68.643 74.983 69.2352 74.2397C63.5681 72.2888 43.6983 55.7868 46.2532 30.3428C48.03 12.6446 61.9423 -0.443195 77.3411 1.10133C92.7399 2.64585 103.784 18.2421 102.007 35.9402C99.3941 61.9416 76.6792 73.6939 70.7682 74.4139V74.4023Z" fill="#FB242D"/>
<path d="M87.9553 10.1245C87.9553 10.1245 98.674 19.3568 97.2224 33.8382C95.7708 48.3195 88.1643 57.006 82.0791 63.5093C82.0791 63.5093 100.044 38.0072 87.9553 10.1245Z" fill="white"/>
<path d="M99.2775 127.436L48.0142 290.718L48.3687 290.83L99.6321 127.548L99.2775 127.436Z" fill="#FEB937"/>
<path d="M100.753 126.289C101.02 127.346 101.218 128.856 101.229 129.308C101.194 129.308 100.544 129.425 99.0459 128.937C97.5827 128.461 97.1878 128.066 97.153 128.031C97.6059 127.369 98.5466 126.428 99.2898 125.825C94.1336 122.77 78.0265 102.575 85.691 78.1766C91.0214 61.2101 107.303 51.2113 122.063 55.8449C136.823 60.4784 144.476 77.9908 139.145 94.9573C131.318 119.89 106.676 126.788 100.753 126.289Z" fill="#FEB937"/>
<path d="M130.61 66.8306C130.61 66.8306 139.238 78.0487 134.883 91.9262C130.529 105.804 121.319 112.771 114.038 117.904C114.038 117.904 136.799 96.5713 130.621 66.8306H130.61Z" fill="white"/>
<path d="M35.8171 135.21L35.4502 135.269L62.6648 304.232L63.0317 304.172L35.8171 135.21Z" fill="#00D6AD"/>
<path d="M36.2777 133.628C36.9861 134.453 37.8454 135.719 38.0545 136.114C38.0196 136.137 37.4854 136.52 35.9409 136.764C34.4196 136.996 33.8854 136.822 33.839 136.799C33.9435 136.009 34.3732 134.743 34.7564 133.872C28.7757 133.443 5.32916 122.596 1.26462 97.3495C-1.55733 79.7907 8.53434 63.5674 23.8054 61.1055C39.0764 58.6435 53.7552 70.8836 56.5887 88.4424C60.7462 114.235 41.7938 131.434 36.2777 133.64V133.628Z" fill="#00D6AD"/>
<path d="M36.3821 67.0977C36.3821 67.0977 49.1099 73.2641 51.4325 87.6294C53.7435 101.995 48.6338 112.342 44.4183 120.192C44.4183 120.192 55.2299 90.9274 36.3937 67.0977H36.3821Z" fill="white"/>
</svg>
