<svg width="14" height="10" viewBox="0 0 14 10" fill="none" xmlns="http://www.w3.org/2000/svg">
<path fill-rule="evenodd" clip-rule="evenodd" d="M13.364 0.406401C13.5514 0.593929 13.6568 0.848237 13.6568 1.1134C13.6568 1.37857 13.5514 1.63287 13.364 1.8204L5.86864 9.31573C5.76959 9.41481 5.65199 9.4934 5.52256 9.54702C5.39313 9.60064 5.25441 9.62824 5.11431 9.62824C4.97421 9.62824 4.83549 9.60064 4.70606 9.54702C4.57663 9.4934 4.45903 9.41481 4.35998 9.31573L0.635977 5.5924C0.540467 5.50015 0.464284 5.38981 0.411875 5.26781C0.359466 5.1458 0.33188 5.01458 0.330726 4.8818C0.329572 4.74902 0.354874 4.61734 0.405155 4.49445C0.455436 4.37155 0.529689 4.2599 0.623582 4.16601C0.717475 4.07211 0.829126 3.99786 0.952023 3.94758C1.07492 3.8973 1.2066 3.872 1.33938 3.87315C1.47216 3.8743 1.60338 3.90189 1.72538 3.9543C1.84739 4.00671 1.95773 4.08289 2.04998 4.1784L5.11398 7.2424L11.9493 0.406401C12.0422 0.313475 12.1524 0.239758 12.2738 0.189463C12.3952 0.139168 12.5253 0.113281 12.6566 0.113281C12.788 0.113281 12.9181 0.139168 13.0395 0.189463C13.1608 0.239758 13.2711 0.313475 13.364 0.406401Z" fill="black"/>
</svg>
