<svg width="20" height="19" viewBox="0 0 20 19" fill="none" xmlns="http://www.w3.org/2000/svg">
<path fill-rule="evenodd" clip-rule="evenodd" d="M15.8834 5.22977C16.1175 5.43844 16.249 5.7213 16.249 6.01622C16.249 6.31114 16.1175 6.594 15.8834 6.80267L8.3834 13.4801C8.14903 13.6885 7.83132 13.8056 7.50007 13.8056C7.16882 13.8056 6.85111 13.6885 6.61674 13.4801L4.11674 11.2543C3.89594 11.0433 3.77573 10.7643 3.78144 10.476C3.78716 10.1876 3.91835 9.91256 4.14737 9.70865C4.37639 9.50475 4.68536 9.38795 5.0092 9.38286C5.33303 9.37778 5.64644 9.4848 5.8834 9.68138L7.50007 11.1207L14.1167 5.22977C14.3511 5.02136 14.6688 4.9043 15.0001 4.9043C15.3313 4.9043 15.649 5.02136 15.8834 5.22977Z" fill="#8DC542"/>
</svg>
