<svg id="Layer_1" data-name="Layer 1" xmlns="http://www.w3.org/2000/svg" viewBox="0 0 4264.57 2719.8"><defs><style>.cls-1{fill:#8dc541;fill-rule:evenodd;}</style></defs><path class="cls-1" d="M171.21,2538.08l59.56-5.35q4.18,36.14,19.74,59.32t48.17,37.47q32.63,14.22,73.5,14.28,36.29,0,64-10.82t41.26-29.78c9-12.6,13.61-26.32,13.61-41,0-14.93-4.35-28-13.05-39.25s-23.09-20.51-43.16-28.21q-19.23-7.35-85.3-23.31t-92.45-29.88q-34.29-18.08-51-44.72c-11.27-17.74-16.84-37.69-16.84-59.66q0-36.47,20.62-67.92c13.73-21.07,33.68-37,60.11-47.95s55.65-16.38,87.87-16.38q53.21,0,93.91,17.17t62.56,50.51q21.9,33.29,23.52,75.5L477,2352.75q-4.85-45.35-33.11-68.48t-83.53-23.2q-57.54,0-83.86,21.08T250.18,2333q0,25.77,18.62,42.49c12.27,11,44,22.53,95.57,34.12s86.87,21.87,106.05,30.55c27.76,12.84,48.4,29,61.67,48.73s19.85,42.28,19.85,67.93-7.25,49.4-21.86,71.93-35.47,40-62.79,52.51-58,18.74-92.21,18.74q-64.9,0-108.73-19c-29.33-12.6-52.19-31.56-68.81-57s-25.43-54-26.33-86Zm633.53-79.29q0-119.1,64.12-186.57t165.37-67.34q66.42,0,119.66,31.66t81.19,88.32q27.93,56.55,28,128.36,0,72.75-29.44,130.24t-83.3,87q-54,29.61-116.42,29.56-67.76,0-121-32.67a210.13,210.13,0,0,1-80.74-89.11,269.43,269.43,0,0,1-27.43-119.43Zm65.57,1.11q0,86.49,46.5,136.16t116.76,49.74c47.73,0,86.87-16.72,117.76-50.18s46.16-81,46.16-142.52q0-58.38-19.73-101.93T1120,2283.71q-38.13-23.91-85.41-24-67.26,0-115.76,46.16t-48.51,154ZM1533.82,2692V2212.91H1857v56.19H1597.39v149.21H1822.2v56.2H1597.39V2692Zm701,0V2269.1h-157.9v-56.19h379.37v56.19H2298.37V2692Zm774.58-479.06H3073v276.67q0,72.24-16.3,114.74-16.4,42.32-58.87,69c-28.44,17.73-65.58,26.65-111.74,26.65q-67.07,0-109.85-23.2c-28.55-15.5-48.83-37.8-61-67.13s-18.3-69.36-18.3-120.09V2212.91h63.58v276.55c0,41.59,3.9,72.37,11.59,92a87.27,87.27,0,0,0,39.7,45.61q28.11,16,68.8,16.06,69.61,0,99.25-31.68t29.55-122V2212.91ZM3501.18,2692l-185.12-479.06h68.7l124.44,348.14c9.93,27.87,18.39,54,25.1,78.4q11-39.32,25.76-78.4l129.12-348.14h64.69L3567.08,2692Zm476.28-233.18q0-119.1,64.12-186.57T4207,2204.88q66.39,0,119.66,31.66t81.17,88.32q27.95,56.55,28,128.36,0,72.75-29.44,130.24t-83.3,87Q4269,2700,4206.63,2700q-67.76,0-121-32.67a210.11,210.11,0,0,1-80.73-89.11,269.43,269.43,0,0,1-27.43-119.43Zm65.56,1.11q0,86.49,46.51,136.16t116.76,49.74q71.58,0,117.75-50.18t46.16-142.52q0-58.38-19.72-101.93t-57.77-67.46q-38.15-23.91-85.43-24-67.24,0-115.75,46.16T4043,2459.9Z" transform="translate(-171.21 -367.6)"/><path class="cls-1" d="M2875.28,3083.73V2882h38.6v201.71Zm-2502.72,0v-200H413.4v165.93H514.55v34.08ZM701,3037.54l38.59,6.47c-4.92,14.13-12.77,24.89-23.42,32.3S692,3087.4,676,3087.4q-38.12,0-56.4-24.94-14.43-20-14.46-50.47,0-36.33,19-56.95t48-20.62q32.53,0,51.41,21.55t18,66.07H644.89q.4,17.19,9.34,26.77a29,29,0,0,0,22.16,9.57c6.06,0,11.13-1.63,15.21-4.93s7.24-8.59,9.35-15.91Zm2.25-39.16c-.28-11.22-3.15-19.77-8.64-25.59a26.35,26.35,0,0,0-20-8.79,26.81,26.81,0,0,0-20.86,9.25c-5.49,6.16-8.16,14.56-8.07,25.13Zm214.95-60.86v30.72H891.67v59.21c0,12,.23,19,.75,21a8.7,8.7,0,0,0,3.48,4.93,11,11,0,0,0,6.53,1.92c3.61,0,8.77-1.22,15.58-3.71l3.24,30q-13.46,5.77-30.47,5.78a47.88,47.88,0,0,1-18.78-3.52c-5.59-2.34-9.68-5.4-12.26-9.11s-4.42-8.77-5.45-15.16c-.79-4.51-1.22-13.62-1.22-27.38v-64H835.32v-30.72h17.75v-29l38.6-22.81v51.83Zm105,16.06-7.27-37.5V2882h42v34.06l-6.3,37.5Zm53.53,89,38.88-5.91q2.46,11.2,10,17c5,3.89,12.11,5.82,21.18,5.82,10,0,17.51-1.83,22.58-5.5a12.4,12.4,0,0,0,5.07-10.37,10.23,10.23,0,0,0-2.77-7.29c-1.92-1.82-6.24-3.56-12.91-5.1q-46.85-10.36-59.35-18.89-17.4-11.88-17.37-33,0-19.08,15-32t46.49-13q30,0,44.6,9.83t20.1,29.05l-36.34,6.77a22.76,22.76,0,0,0-8.93-13.2q-6.56-4.56-18.73-4.56c-10.23,0-17.57,1.41-22,4.28a9.13,9.13,0,0,0-4.41,7.85,8.52,8.52,0,0,0,3.85,7q5.28,3.87,36.25,10.89t43.24,17.23c8.11,6.86,12.16,16.48,12.16,28.79,0,13.37-5.59,24.92-16.81,34.55s-27.75,14.46-49.72,14.46q-29.87,0-47.34-12.07a55.43,55.43,0,0,1-22.77-32.73Zm372.67,41.13V2916.12h-59.72V2882h160v34.1h-59.44v167.61Zm233.45-101.13-34.94-6.2q5.92-21.41,20.39-31.69t42.91-10.29q25.83,0,38.55,6.12c8.4,4.08,14.36,9.24,17.79,15.54s5.16,17.8,5.16,34.6l-.56,45.08q0,19.22,1.83,28.39a82.69,82.69,0,0,0,6.9,19.58H1742.5c-1-2.52-2.25-6.29-3.71-11.26-.61-2.3-1.08-3.8-1.36-4.52a68.75,68.75,0,0,1-21.13,14.56,59.87,59.87,0,0,1-24,4.89q-22.47,0-35.45-12.25t-13-31a41.6,41.6,0,0,1,5.92-22.07,38.47,38.47,0,0,1,16.57-14.83q10.63-5.15,30.71-9c18-3.37,30.57-6.58,37.51-9.49v-3.89q0-11.27-5.49-16.1t-20.85-4.8c-6.9,0-12.25,1.37-16.1,4.13s-7,7.57-9.39,14.47Zm51.83,31.28q-7.39,2.45-23.52,5.91c-10.71,2.3-17.75,4.55-21,6.71-5,3.62-7.55,8.13-7.55,13.62a18.93,18.93,0,0,0,6,14c4,3.94,9.15,5.91,15.4,5.91q10.44,0,20-6.86a24.32,24.32,0,0,0,9.2-12.81q1.48-4.93,1.5-18.83v-7.69ZM1889,3083.73V2882h38.6v201.71Zm155.13,0V2882h38.6v107l45.22-51.51h47.61L2125.68,2991l53.53,92.77h-41.7l-36.9-66-17.89,19.16v46.8Zm304.22-65.35,39.71-4c2.41,13.3,7.19,23,14.46,29.25s17.1,9.36,29.45,9.36q19.58,0,29.53-8.32c6.62-5.55,10-12,10-19.44a18.55,18.55,0,0,0-4.19-12.2c-2.76-3.34-7.64-6.25-14.6-8.7-4.74-1.68-15.53-4.6-32.44-8.82q-32.61-8.17-45.79-20-18.53-16.68-18.5-40.7a52.43,52.43,0,0,1,8.7-28.93q8.73-13.46,25.12-20.47c10.94-4.69,24.07-7,39.57-7q37.83,0,57,16.81t20.09,44.89l-40.84,1.41q-2.62-15.63-11.13-22.44c-5.69-4.56-14.24-6.86-25.59-6.86q-17.62,0-27.57,7.33a14.86,14.86,0,0,0-6.43,12.58q0,7.18,6.06,12.26,7.66,6.54,37.32,13.56c19.77,4.65,34.37,9.53,43.82,14.51a56.84,56.84,0,0,1,22.25,20.52q8,13,8,32.11a59.39,59.39,0,0,1-9.62,32.49,57.57,57.57,0,0,1-27.24,22.49q-17.61,7.39-43.91,7.38-38.22,0-58.73-17.65t-24.46-51.37Zm267.58-9.53a79.07,79.07,0,0,1,9.49-37.34A65.14,65.14,0,0,1,2652.3,2944a79.59,79.59,0,0,1,38.83-9.53q33.18,0,54.33,21.55c14.13,14.42,21.18,32.54,21.18,54.53q0,33.24-21.36,55.06t-53.85,21.84a84.66,84.66,0,0,1-38.33-9.12,62.35,62.35,0,0,1-27.69-26.65q-9.51-17.55-9.49-42.78Zm39.72,2.06q0,21.78,10.29,33.34c6.89,7.75,15.35,11.59,25.44,11.59s18.49-3.84,25.31-11.59,10.24-18.91,10.24-33.62q0-21.49-10.24-33.06c-6.82-7.75-15.26-11.59-25.31-11.59s-18.55,3.84-25.44,11.59-10.29,18.84-10.29,33.34Zm472.81,72.82v-21.88A59.42,59.42,0,0,1,3080,3087.4a53.58,53.58,0,0,1-26.5-6.49,38.13,38.13,0,0,1-16.95-18.21q-5.25-11.76-5.25-32.43v-92.75h38.59v67.33c0,20.62.71,33.21,2.17,37.85a20.22,20.22,0,0,0,7.79,11c3.76,2.73,8.53,4.09,14.37,4.09a30.65,30.65,0,0,0,17.8-5.45,27.42,27.42,0,0,0,10.74-13.53q2.9-8.07,2.91-39.52v-61.8h38.6v146.21Zm220.49-146.21v30.72h-26.48v59.21q0,18,.75,21a8.7,8.7,0,0,0,3.48,4.93,11,11,0,0,0,6.51,1.92c3.62,0,8.79-1.22,15.6-3.71l3.24,30c-9,3.85-19.1,5.78-30.47,5.78a48,48,0,0,1-18.78-3.52c-5.59-2.34-9.67-5.4-12.26-9.11s-4.41-8.77-5.45-15.16c-.8-4.51-1.22-13.62-1.22-27.38v-64h-17.75v-30.72h17.75v-29l38.6-22.81v51.83Zm105.33-19.71V2882h38.59v35.79Zm0,165.92V2937.52h38.59v146.21Zm147.52-74.88a79.06,79.06,0,0,1,9.48-37.34,65.13,65.13,0,0,1,26.91-27.56,79.46,79.46,0,0,1,38.83-9.53c22.12,0,40.18,7.18,54.33,21.55s21.16,32.54,21.16,54.53q0,33.24-21.37,55.06t-53.85,21.84a84.62,84.62,0,0,1-38.32-9.12,62.5,62.5,0,0,1-27.69-26.65q-9.51-17.55-9.48-42.78Zm39.71,2.06q0,21.78,10.29,33.34c6.91,7.75,15.37,11.59,25.46,11.59a32.32,32.32,0,0,0,25.29-11.59q10.23-11.57,10.25-33.62,0-21.49-10.25-33.06a32.32,32.32,0,0,0-25.29-11.59c-10.09,0-18.55,3.84-25.46,11.59s-10.29,18.84-10.29,33.34Zm352.63,72.82h-38.59v-74.51c0-15.77-.86-26-2.5-30.56a21.45,21.45,0,0,0-8.13-10.8,23.24,23.24,0,0,0-13.51-3.86,31.4,31.4,0,0,0-18.17,5.5,27.57,27.57,0,0,0-11,14.56q-3,9.08-3,33.56v66.11H3860.6V2937.52h35.77V2959c12.83-16.39,28.92-24.57,48.4-24.57a59,59,0,0,1,23.47,4.6c7.15,3.1,12.5,7,16.12,11.74A42.38,42.38,0,0,1,3992,2967q2.17,9.08,2.17,26v90.75Zm103.58-41.13,38.86-5.91q2.46,11.2,10.06,17c5,3.89,12.11,5.82,21.17,5.82,10,0,17.51-1.83,22.59-5.5a12.42,12.42,0,0,0,5.06-10.37,10.18,10.18,0,0,0-2.77-7.29c-1.92-1.82-6.24-3.56-12.9-5.1q-46.84-10.36-59.36-18.89-17.4-11.88-17.37-33,0-19.08,15-32t46.49-13q30,0,44.61,9.83t20.1,29.05l-36.36,6.77a22.66,22.66,0,0,0-8.92-13.2q-6.54-4.56-18.73-4.56c-10.23,0-17.56,1.41-22,4.28a9.13,9.13,0,0,0-4.43,7.85,8.56,8.56,0,0,0,3.86,7q5.28,3.87,36.25,10.89t43.24,17.23c8.12,6.86,12.16,16.48,12.16,28.79,0,13.37-5.58,24.92-16.81,34.55s-27.75,14.46-49.72,14.46q-29.86,0-47.32-12.07A55.31,55.31,0,0,1,4097.71,3042.6Z" transform="translate(-171.21 -367.6)"/><path class="cls-1" d="M2197.57,1902.94,2628,1485.39c318.71-301.41-215.51-438.16-433.33-745.77C2289.82,658,2409,523.87,2508.69,431c56.39-52.83,57.65-49.58,161.47-48.81,333.93,2.42,281.74-32.73,281.58,578.86,0,139.09-.4,278.19-.4,417.29,0,162.14,38.06,289.75-129.44,299.62-233.9,13.77-160.22,3.7-343.56,91.67-65.91,31.62-226.29,121.48-280.77,133.31Zm210.33-574.68c-69.32-108.37-196.23-208.12-282.67-288.47C2080.45,998.17,1854,817.45,1851.79,744c-1.87-63,223.36-253.23,346.83-376.37-111.87,4.07-292.61-6.32-405,19.28-83.63,19.05-137.07,51.94-137.09,156.9l0,634.26c.26,409.86-50.44,499.43,180.45,500.19,236.84.75,213.78,23.54,382.08-167.82C2279.59,1441.58,2344.89,1396.85,2407.9,1328.26Z" transform="translate(-171.21 -367.6)"/><text x="-171.21" y="-367.6"/></svg>