<svg width="22" height="22" viewBox="0 0 22 22" fill="none" xmlns="http://www.w3.org/2000/svg">
<path d="M20.6632 6.93127C20.1374 5.67625 19.3724 4.53553 18.4109 3.57268C17.4523 2.60815 16.3135 1.84129 15.0593 1.31565C13.7745 0.774549 12.3941 0.497182 11 0.500022H10.9531C9.53512 0.507053 8.16403 0.788303 6.87262 1.34143C5.62919 1.87246 4.50114 2.64068 3.55153 3.60315C2.59933 4.56384 1.8431 5.70057 1.32496 6.95002C0.787108 8.24931 0.514575 9.64305 0.523401 11.0492C0.530432 12.6758 0.919495 14.2906 1.64606 15.7344V19.2969C1.64606 19.8922 2.12887 20.375 2.72184 20.375H6.27965C7.73014 21.1069 9.33076 21.4921 10.9554 21.5H11.0047C12.4062 21.5 13.7632 21.2281 15.0429 20.6961C16.2908 20.1767 17.4253 19.4188 18.3828 18.4649C19.3484 17.5063 20.1078 16.386 20.6398 15.1367C21.1906 13.843 21.4718 12.4672 21.4789 11.0469C21.4836 9.61955 21.207 8.2344 20.6632 6.93127ZM6.32184 12.125C5.70309 12.125 5.19918 11.6211 5.19918 11C5.19918 10.3789 5.70309 9.87502 6.32184 9.87502C6.94059 9.87502 7.44449 10.3789 7.44449 11C7.44449 11.6211 6.94293 12.125 6.32184 12.125ZM11 12.125C10.3812 12.125 9.87731 11.6211 9.87731 11C9.87731 10.3789 10.3812 9.87502 11 9.87502C11.6187 9.87502 12.1226 10.3789 12.1226 11C12.1226 11.6211 11.6187 12.125 11 12.125ZM15.6781 12.125C15.0593 12.125 14.5554 11.6211 14.5554 11C14.5554 10.3789 15.0593 9.87502 15.6781 9.87502C16.2968 9.87502 16.8007 10.3789 16.8007 11C16.8007 11.6211 16.2968 12.125 15.6781 12.125Z" fill="#8DC542"/>
</svg>
