<svg id="Layer_1" data-name="Layer 1" xmlns="http://www.w3.org/2000/svg" viewBox="0 0 1303.08 1535.34"><defs><style>.cls-1{fill:#8dc441;fill-rule:evenodd;}</style></defs><path class="cls-1" d="M672.43,1626.74l430.45-417.55C1421.59,907.78,887.37,771,669.55,463.42c95.12-81.65,214.29-215.75,314-308.62C1039.94,102,1041.2,105.22,1145,106c333.94,2.42,281.75-32.73,281.58,578.85,0,139.1-.4,278.2-.4,417.3,0,162.14,38.06,289.75-129.43,299.62-233.91,13.77-160.22,3.69-343.57,91.67-65.91,31.62-226.29,121.48-280.76,133.31Z" transform="translate(-126.83 -91.4)"/><path class="cls-1" d="M882.76,1052.06C813.44,943.69,686.53,843.94,600.09,763.59,555.31,722,328.83,541.25,326.64,467.77,324.77,404.76,550,214.54,673.47,91.4c-111.87,4.07-292.61-6.32-405,19.28-83.63,19-137.07,51.94-137.09,156.9l0,634.26c.26,409.86-50.43,499.43,180.45,500.18,236.84.76,213.78,23.55,382.09-167.82C754.44,1165.37,819.74,1120.65,882.76,1052.06Z" transform="translate(-126.83 -91.4)"/></svg>