<svg width="20" height="20" viewBox="0 0 20 20" fill="none" xmlns="http://www.w3.org/2000/svg">
<path d="M15.0629 1.29492L18.5404 4.91992V18.7049H5.5498V18.7499H18.5848V4.96555L15.0629 1.29492Z" fill="#909090"/>
<path d="M15.0193 1.25H5.50488V18.705H18.5399V4.92063L15.0193 1.25Z" fill="#F4F4F4"/>
<path d="M5.40879 2.1875H1.41504V6.45438H13.9775V2.1875H5.40879Z" fill="#7A7B7C"/>
<path d="M14.0452 6.38182H1.49707V2.11182H14.0452V6.38182Z" fill="#DD2025"/>
<path d="M5.6577 2.83368H4.84082V5.83368H5.48332V4.82181L5.6252 4.82993C5.76305 4.82756 5.89961 4.80287 6.02957 4.75681C6.14351 4.71762 6.24833 4.65575 6.3377 4.57493C6.42863 4.49794 6.50033 4.40078 6.54707 4.29118C6.60976 4.10899 6.63215 3.91537 6.6127 3.72368C6.60879 3.58675 6.58479 3.45113 6.54145 3.32118C6.50199 3.22737 6.44344 3.14281 6.36952 3.07287C6.29559 3.00292 6.20792 2.94914 6.11207 2.91493C6.0292 2.88493 5.94358 2.86316 5.85645 2.84993C5.79046 2.83975 5.72383 2.83432 5.65707 2.83368M5.53895 4.26743H5.48332V3.34243H5.60395C5.65718 3.33859 5.7106 3.34677 5.76026 3.36635C5.80991 3.38593 5.85453 3.41641 5.89082 3.45556C5.96602 3.55619 6.00619 3.67868 6.0052 3.80431C6.0052 3.95806 6.0052 4.09743 5.86645 4.19556C5.76649 4.25053 5.65271 4.27591 5.53895 4.26743ZM7.83332 2.82556C7.76395 2.82556 7.69645 2.83056 7.64895 2.83243L7.5002 2.83618H7.0127V5.83618H7.58645C7.80571 5.84219 8.02402 5.80503 8.22895 5.72681C8.39389 5.66138 8.53995 5.55592 8.65395 5.41993C8.7648 5.28272 8.84436 5.12296 8.88707 4.95181C8.93617 4.75798 8.96012 4.55863 8.95832 4.35868C8.97044 4.12253 8.95217 3.8858 8.90395 3.65431C8.85818 3.48391 8.77249 3.32686 8.65395 3.19618C8.56094 3.09066 8.44709 3.00554 8.31957 2.94618C8.21006 2.89551 8.09486 2.85815 7.97645 2.83493C7.92936 2.82715 7.88167 2.8236 7.83395 2.82431M7.7202 5.28493H7.6577V3.36993H7.66582C7.79467 3.35511 7.92504 3.37836 8.04082 3.43681C8.12561 3.50451 8.1947 3.58981 8.24332 3.68681C8.29579 3.78889 8.32604 3.90094 8.33207 4.01556C8.3377 4.15306 8.33207 4.26556 8.33207 4.35868C8.33462 4.46596 8.32771 4.57324 8.31145 4.67931C8.29218 4.7882 8.25657 4.89356 8.20582 4.99181C8.14838 5.08315 8.07077 5.16012 7.97895 5.21681C7.90183 5.26668 7.81052 5.28995 7.71895 5.28306M10.8939 2.83618H9.3752V5.83618H10.0177V4.64618H10.8302V4.08868H10.0177V3.39368H10.8927V2.83618" fill="#464648"/>
<path d="M13.6134 12.6594C13.6134 12.6594 15.6059 12.2982 15.6059 12.9788C15.6059 13.6594 14.3715 13.3826 13.6134 12.6594ZM12.1403 12.7113C11.8237 12.7813 11.5152 12.8837 11.2197 13.0169L11.4697 12.4544C11.7197 11.8919 11.979 11.1251 11.979 11.1251C12.2774 11.6271 12.6245 12.0986 13.0153 12.5326C12.7206 12.5765 12.4284 12.6366 12.1403 12.7126V12.7113ZM11.3515 8.64882C11.3515 8.05569 11.5434 7.89382 11.6928 7.89382C11.8422 7.89382 12.0103 7.96569 12.0159 8.48069C11.9673 8.99854 11.8588 9.50902 11.6928 10.0019C11.4654 9.58809 11.3477 9.12291 11.3509 8.65069L11.3515 8.64882ZM8.44592 15.2213C7.83467 14.8557 9.7278 13.7301 10.0709 13.6938C10.069 13.6944 9.08592 15.6038 8.44592 15.2213ZM16.1878 13.0594C16.1815 12.9969 16.1253 12.3051 14.894 12.3344C14.3808 12.3262 13.8679 12.3623 13.3609 12.4426C12.8698 11.9478 12.4469 11.3898 12.1034 10.7832C12.3198 10.1578 12.4508 9.50611 12.4928 8.84569C12.4747 8.09569 12.2953 7.66569 11.7203 7.67194C11.1453 7.67819 11.0615 8.18132 11.1372 8.93007C11.2113 9.43322 11.351 9.92449 11.5528 10.3913C11.5528 10.3913 11.2872 11.2182 10.9359 12.0407C10.5847 12.8632 10.3447 13.2944 10.3447 13.2944C9.73388 13.4933 9.15888 13.7887 8.64155 14.1694C8.12655 14.6488 7.91717 15.0169 8.18842 15.3851C8.42217 15.7026 9.2403 15.7744 9.97155 14.8163C10.3601 14.3214 10.715 13.8011 11.034 13.2588C11.034 13.2588 12.149 12.9532 12.4959 12.8694C12.8428 12.7857 13.2622 12.7194 13.2622 12.7194C13.2622 12.7194 14.2803 13.7438 15.2622 13.7076C16.244 13.6713 16.1965 13.1207 16.1903 13.0607" fill="#DD2025"/>
<path d="M14.9717 1.29785V4.96848H18.4923L14.9717 1.29785Z" fill="#909090"/>
<path d="M15.0195 1.25V4.92063H18.5402L15.0195 1.25Z" fill="#F4F4F4"/>
<path d="M5.60887 2.78583H4.79199V5.78583H5.43699V4.77458L5.57949 4.78271C5.71735 4.78033 5.85391 4.75564 5.98387 4.70958C6.0978 4.67038 6.20261 4.60851 6.29199 4.52771C6.38225 4.45051 6.45329 4.35336 6.49949 4.24396C6.56218 4.06177 6.58457 3.86814 6.56512 3.67646C6.56121 3.53952 6.53721 3.40391 6.49387 3.27396C6.45441 3.18015 6.39586 3.09558 6.32194 3.02564C6.24801 2.9557 6.16034 2.90191 6.06449 2.86771C5.98124 2.83741 5.8952 2.81543 5.80762 2.80208C5.74163 2.7919 5.675 2.78647 5.60824 2.78583M5.49012 4.21958H5.43449V3.29458H5.55574C5.60898 3.29074 5.6624 3.29891 5.71205 3.3185C5.76171 3.33808 5.80633 3.36856 5.84262 3.40771C5.91782 3.50834 5.95799 3.63083 5.95699 3.75646C5.95699 3.91021 5.95699 4.04958 5.81824 4.14771C5.71828 4.20268 5.60451 4.22744 5.49074 4.21896M7.78449 2.77771C7.71512 2.77771 7.64762 2.78271 7.60012 2.78458L7.45324 2.78833H6.96574V5.78833H7.53949C7.75876 5.79434 7.97707 5.75718 8.18199 5.67896C8.34694 5.61353 8.493 5.50807 8.60699 5.37208C8.71784 5.23487 8.79741 5.0751 8.84012 4.90396C8.88922 4.71012 8.91317 4.51078 8.91137 4.31083C8.92349 4.07468 8.90522 3.83795 8.85699 3.60646C8.81123 3.43606 8.72553 3.27901 8.60699 3.14833C8.51399 3.04281 8.40014 2.95769 8.27262 2.89833C8.16311 2.84765 8.04791 2.8103 7.92949 2.78708C7.8824 2.7793 7.83471 2.77575 7.78699 2.77646M7.67324 5.23708H7.61074V3.32208H7.61887C7.74772 3.30726 7.87809 3.3305 7.99387 3.38896C8.07866 3.45666 8.14775 3.54196 8.19637 3.63896C8.24884 3.74104 8.27909 3.85308 8.28512 3.96771C8.29074 4.10521 8.28512 4.21771 8.28512 4.31083C8.28766 4.4181 8.28076 4.52539 8.26449 4.63146C8.24523 4.74035 8.20962 4.84571 8.15887 4.94396C8.10142 5.0353 8.02381 5.11227 7.93199 5.16896C7.85488 5.21883 7.76357 5.2421 7.67199 5.23521M10.8451 2.78833H9.32637V5.78833H9.96887V4.59833H10.7814V4.04083H9.96887V3.34583H10.8439V2.78833" fill="white"/>
</svg>
