<svg width="19" height="19" viewBox="0 0 19 19" fill="none" xmlns="http://www.w3.org/2000/svg">
<path d="M2.5 5C3.88071 5 5 3.88071 5 2.5C5 1.11929 3.88071 0 2.5 0C1.11929 0 0 1.11929 0 2.5C0 3.88071 1.11929 5 2.5 5Z" fill="#59F2F6"/>
<path d="M9.5 5C10.8807 5 12 3.88071 12 2.5C12 1.11929 10.8807 0 9.5 0C8.11929 0 7 1.11929 7 2.5C7 3.88071 8.11929 5 9.5 5Z" fill="#25C16F"/>
<path d="M16.5 5C17.8807 5 19 3.88071 19 2.5C19 1.11929 17.8807 0 16.5 0C15.1193 0 14 1.11929 14 2.5C14 3.88071 15.1193 5 16.5 5Z" fill="#FFBB00"/>
<path d="M2.5 12C3.88071 12 5 10.8807 5 9.5C5 8.11929 3.88071 7 2.5 7C1.11929 7 0 8.11929 0 9.5C0 10.8807 1.11929 12 2.5 12Z" fill="#45A4EC"/>
<path d="M9.5 12C10.8807 12 12 10.8807 12 9.5C12 8.11929 10.8807 7 9.5 7C8.11929 7 7 8.11929 7 9.5C7 10.8807 8.11929 12 9.5 12Z" fill="#D33C4E"/>
<path d="M16.5 12C17.8807 12 19 10.8807 19 9.5C19 8.11929 17.8807 7 16.5 7C15.1193 7 14 8.11929 14 9.5C14 10.8807 15.1193 12 16.5 12Z" fill="#EE5A24"/>
<path d="M2.5 19C3.88071 19 5 17.8807 5 16.5C5 15.1193 3.88071 14 2.5 14C1.11929 14 0 15.1193 0 16.5C0 17.8807 1.11929 19 2.5 19Z" fill="#3278B2"/>
<path d="M9.5 19C10.8807 19 12 17.8807 12 16.5C12 15.1193 10.8807 14 9.5 14C8.11929 14 7 15.1193 7 16.5C7 17.8807 8.11929 19 9.5 19Z" fill="#9B65C3"/>
<path d="M16.5 19C17.8807 19 19 17.8807 19 16.5C19 15.1193 17.8807 14 16.5 14C15.1193 14 14 15.1193 14 16.5C14 17.8807 15.1193 19 16.5 19Z" fill="#BF63C6"/>
</svg>
