<svg xmlns="http://www.w3.org/2000/svg" width="512" height="512" viewBox="0 0 512 512" version="1.1"><path d="" stroke="none" fill="#ffffff" fill-rule="evenodd"/><path d="M 103.859 18.158 C 97.771 21.688, 96 26.117, 96 37.816 L 96 47.860 74.250 48.207 C 54.290 48.524, 52.021 48.744, 46.676 50.876 C 33.509 56.128, 22.140 68.331, 18.037 81.615 C 16.194 87.583, 16 90.866, 16 116.105 L 16 144 256.055 144 L 496.110 144 495.797 114.250 C 495.497 85.759, 495.385 84.253, 493.142 78.676 C 487.769 65.312, 475.804 54.182, 462.338 50.023 C 456.699 48.281, 453.038 48, 435.981 48 L 416.172 48 415.836 36.750 C 415.459 24.125, 414.479 21.830, 407.864 18.068 C 400.383 13.814, 390.298 16.567, 386.118 24.004 C 384.349 27.152, 384 29.437, 384 37.886 L 384 48 328.086 48 L 272.172 48 271.836 36.750 C 271.459 24.125, 270.479 21.830, 263.864 18.068 C 256.383 13.814, 246.298 16.567, 242.118 24.004 C 240.349 27.152, 240 29.437, 240 37.886 L 240 48 184.086 48 L 128.172 48 127.836 36.750 C 127.557 27.399, 127.162 25.047, 125.500 22.818 C 120.572 16.208, 110.835 14.112, 103.859 18.158 M 96 56.257 C 96 66.572, 97.100 70.476, 101.198 74.704 C 107.441 81.145, 116.559 81.145, 122.802 74.704 C 126.900 70.476, 128 66.572, 128 56.257 L 128 48 112 48 L 96 48 96 56.257 M 240 56.257 C 240 66.572, 241.100 70.476, 245.198 74.704 C 251.441 81.145, 260.559 81.145, 266.802 74.704 C 270.900 70.476, 272 66.572, 272 56.257 L 272 48 256 48 L 240 48 240 56.257 M 384 56.257 C 384 66.572, 385.100 70.476, 389.198 74.704 C 395.441 81.145, 404.559 81.145, 410.802 74.704 C 414.900 70.476, 416 66.572, 416 56.257 L 416 48 400 48 L 384 48 384 56.257 M 16 315.895 C 16 452.114, 16.052 455.956, 17.964 462.145 C 20.026 468.815, 24.386 476.522, 28.851 481.386 C 33.074 485.986, 42.812 491.862, 49.783 494.015 C 56.104 495.967, 59.531 496, 256 496 C 451.749 496, 455.918 495.960, 462.145 494.036 C 468.815 491.974, 476.522 487.614, 481.386 483.149 C 485.986 478.926, 491.862 469.188, 494.015 462.217 C 495.955 455.935, 496 452.618, 496 315.895 L 496 176 256 176 L 16 176 16 315.895 M 242.313 271.754 L 229.126 301.500 195.147 302 L 161.167 302.500 184.583 329.225 C 197.463 343.924, 208 356.462, 208 357.087 C 208 358.068, 189.696 426.190, 188.454 429.831 C 188.152 430.719, 189.085 430.506, 191.250 429.193 C 212.855 416.096, 255.398 391, 255.995 391 C 256.421 391, 271.783 399.954, 290.134 410.899 C 308.485 421.843, 323.580 430.725, 323.678 430.637 C 323.776 430.549, 319.394 414.282, 313.941 394.489 C 308.488 374.695, 304.020 357.926, 304.013 357.225 C 304.006 356.524, 314.537 343.924, 327.417 329.225 L 350.833 302.500 316.853 302 L 282.874 301.500 269.687 271.754 C 262.434 255.394, 256.275 242.008, 256 242.008 C 255.725 242.008, 249.566 255.394, 242.313 271.754" stroke="none" fill="#ffffff" fill-rule="evenodd"/></svg>