<svg width="16" height="16" viewBox="0 0 16 16" fill="none" xmlns="http://www.w3.org/2000/svg">
<g clip-path="url(#clip0_134_11138)">
<path d="M6.99746 13.9988C10.862 13.9988 13.9949 10.8659 13.9949 7.00134C13.9949 3.13673 10.8621 0.00390625 6.99746 0.00390625C3.13285 0.00390625 -3.8147e-06 3.13676 -3.8147e-06 7.00137C-3.8147e-06 10.866 3.13288 13.9988 6.99746 13.9988ZM6.99746 2.00319C9.75789 2.00319 11.9956 4.24094 11.9956 7.00137C11.9956 9.7618 9.75789 11.9995 6.99746 11.9995C4.23703 11.9995 1.99928 9.7618 1.99928 7.00137C1.99928 4.24094 4.23706 2.00319 6.99746 2.00319Z" fill="white"/>
<path d="M14.9946 15.9981C15.2603 15.9996 15.5157 15.8953 15.7043 15.7082C16.0963 15.3194 16.0989 14.6865 15.7101 14.2945C15.7082 14.2926 15.7062 14.2906 15.7043 14.2887L11.9457 10.5301C11.5399 10.1381 10.8932 10.1493 10.5012 10.5551C10.1092 10.9608 10.1204 11.6076 10.5262 11.9996L14.2848 15.7082C14.4735 15.8953 14.7288 15.9996 14.9946 15.9981Z" fill="white"/>
</g>
<defs>
<clipPath id="clip0_134_11138">
<rect width="16" height="16" fill="white" transform="matrix(-1 0 0 1 16 0)"/>
</clipPath>
</defs>
</svg>
