<svg width="28" height="28" viewBox="0 0 28 28" fill="none" xmlns="http://www.w3.org/2000/svg">
<path fill-rule="evenodd" clip-rule="evenodd" d="M0.753906 13.9999C0.753906 10.4868 2.14946 7.11768 4.63357 4.63357C7.11768 2.14946 10.4868 0.753906 13.9999 0.753906C17.513 0.753906 20.8821 2.14946 23.3662 4.63357C25.8503 7.11768 27.2459 10.4868 27.2459 13.9999C27.2459 17.513 25.8503 20.8821 23.3662 23.3662C20.8821 25.8503 17.513 27.2459 13.9999 27.2459C10.4868 27.2459 7.11768 25.8503 4.63357 23.3662C2.14946 20.8821 0.753906 17.513 0.753906 13.9999ZM13.9999 2.65391C10.9908 2.65391 8.10486 3.84928 5.97707 5.97707C3.84928 8.10486 2.65391 10.9908 2.65391 13.9999C2.65391 17.0091 3.84928 19.895 5.97707 22.0227C8.10486 24.1505 10.9908 25.3459 13.9999 25.3459C17.0091 25.3459 19.895 24.1505 22.0227 22.0227C24.1505 19.895 25.3459 17.0091 25.3459 13.9999C25.3459 10.9908 24.1505 8.10486 22.0227 5.97707C19.895 3.84928 17.0091 2.65391 13.9999 2.65391ZM18.7079 9.29391C18.8954 9.48143 19.0007 9.73574 19.0007 10.0009C19.0007 10.2661 18.8954 10.5204 18.7079 10.7079L15.4139 13.9999L18.7079 17.2919C18.8957 17.4797 19.0012 17.7344 19.0012 17.9999C19.0012 18.2655 18.8957 18.5201 18.7079 18.7079C18.5201 18.8957 18.2655 19.0012 17.9999 19.0012C17.7344 19.0012 17.4797 18.8957 17.2919 18.7079L13.9999 15.4139L10.7079 18.7079C10.6149 18.8009 10.5046 18.8746 10.3831 18.925C10.2616 18.9753 10.1314 19.0012 9.99991 19.0012C9.86842 19.0012 9.73822 18.9753 9.61674 18.925C9.49526 18.8746 9.38488 18.8009 9.29191 18.7079C9.19893 18.6149 9.12518 18.5046 9.07486 18.3831C9.02454 18.2616 8.99864 18.1314 8.99864 17.9999C8.99864 17.8684 9.02454 17.7382 9.07486 17.6167C9.12518 17.4953 9.19893 17.3849 9.29191 17.2919L12.5859 13.9999L9.29191 10.7079C9.10413 10.5201 8.99864 10.2655 8.99864 9.99991C8.99864 9.73435 9.10413 9.47968 9.29191 9.29191C9.47968 9.10413 9.73435 8.99864 9.99991 8.99864C10.2655 8.99864 10.5201 9.10413 10.7079 9.29191L13.9999 12.5859L17.2919 9.29191C17.3848 9.19878 17.4951 9.12489 17.6166 9.07448C17.7381 9.02407 17.8684 8.99812 17.9999 8.99812C18.1314 8.99812 18.2617 9.02407 18.3832 9.07448C18.5047 9.12489 18.615 9.20078 18.7079 9.29391Z" fill="#1F1F1F"/>
</svg>
