<svg width="18" height="18" viewBox="0 0 18 18" fill="none" xmlns="http://www.w3.org/2000/svg">
<path d="M15.5769 2.76923H2.50962C1.84402 2.76923 1.20569 3.03364 0.735049 3.50428C0.264405 3.97492 0 4.61325 0 5.27885V12.1154C0 12.758 0.255288 13.3743 0.709703 13.8288C1.16412 14.2832 1.78044 14.5385 2.42308 14.5385V14.5385C2.61425 14.5385 2.76923 14.6934 2.76923 14.8846V16.2554C2.76923 16.7181 2.95304 17.1618 3.28022 17.489C3.6074 17.8162 4.05115 18 4.51385 18H13.4862C13.9489 18 14.3926 17.8162 14.7198 17.489C15.047 17.1618 15.2308 16.7181 15.2308 16.2554V14.8846C15.2308 14.6934 15.3857 14.5385 15.5769 14.5385V14.5385C16.2196 14.5385 16.8359 14.2832 17.2903 13.8288C17.7447 13.3743 18 12.758 18 12.1154V5.19231C18 4.54967 17.7447 3.93335 17.2903 3.47893C16.8359 3.02452 16.2196 2.76923 15.5769 2.76923ZM13.8462 16.2554C13.8458 16.3508 13.8078 16.4421 13.7403 16.5096C13.6729 16.577 13.5815 16.615 13.4862 16.6154H4.51385C4.41847 16.615 4.3271 16.577 4.25967 16.5096C4.19223 16.4421 4.15419 16.3508 4.15385 16.2554V9.36C4.15419 9.26463 4.19223 9.17326 4.25967 9.10582C4.3271 9.03838 4.41847 9.00034 4.51385 9H13.4862C13.5815 9.00034 13.6729 9.03838 13.7403 9.10582C13.8078 9.17326 13.8458 9.26463 13.8462 9.36V16.2554ZM14.9712 6.91962C14.7594 6.93664 14.5474 6.88828 14.364 6.78106C14.1805 6.67385 14.0344 6.51293 13.9452 6.32004C13.8561 6.12714 13.8283 5.91155 13.8656 5.70236C13.9029 5.49317 14.0034 5.30044 14.1537 5.15019C14.3039 4.99994 14.4966 4.89939 14.7058 4.86213C14.915 4.82486 15.1306 4.85266 15.3235 4.94178C15.5164 5.0309 15.6773 5.17705 15.7845 5.36051C15.8917 5.54396 15.9401 5.75589 15.9231 5.96769C15.9033 6.21357 15.7967 6.44438 15.6223 6.6188C15.4478 6.79321 15.217 6.89985 14.9712 6.91962ZM12.8077 0H5.19231C4.60991 0.000867241 4.04724 0.211137 3.607 0.59243V0.59243C2.91803 1.18916 3.61152 2.07692 4.52299 2.07692H13.477C14.3885 2.07692 15.082 1.18916 14.393 0.59243V0.59243C13.9528 0.211137 13.3901 0.000867241 12.8077 0Z" fill="black"/>
</svg>
