<svg width="45" height="50" viewBox="0 0 45 50" fill="none" xmlns="http://www.w3.org/2000/svg">
<path d="M1.46617 19.1119L2.74597 19.8885L3.50701 18.4824C5.22272 15.6091 10.4734 8.90463 22.093 8.90463C34.0005 8.90463 39.0741 16.1858 40.7412 18.5818L41.5861 19.8968L44.2388 18.2235L43.3546 16.8402C42.4351 15.5097 40.5051 12.7471 37.0612 10.3066C32.877 7.33284 27.8397 5.82422 22.093 5.82422C8.83224 5.82422 2.76253 13.6014 0.763113 16.9292L0 18.2235L1.17729 18.9338C1.23082 18.9757 1.28722 19.0137 1.34606 19.0477C1.38495 19.0712 1.42504 19.0926 1.46617 19.1119Z" fill="#8DC542"/>
<path d="M34.8535 16.1853C31.1736 13.1898 26.7647 11.6035 22.0949 11.6035C11.9974 11.6035 5.28883 18.4374 3.11235 25.2163C1.11914 31.4766 3.54206 40.548 3.64353 40.9363L4.09705 42.3662L7.1961 41.7004L6.7053 40.1473C6.68356 40.0696 4.417 31.5604 6.14513 26.1472C7.07702 23.2397 9.01639 20.4109 11.4621 18.4032C14.4131 15.9855 18.093 14.7026 22.0949 14.7026C31.4739 14.7026 36.7908 22.0138 38.2943 25.8966C39.4612 28.8921 39.192 32.2977 37.644 34.3872C37.0714 35.1524 36.0619 36.0511 34.5253 35.9735C31.0245 35.7954 30.4188 34.0651 29.577 30.7704C29.1731 29.1841 28.759 27.5419 27.7267 26.2145C26.4696 24.5837 24.6411 23.7957 22.1063 23.7957C19.38 23.7957 17.3154 24.6945 15.9579 26.4589C12.9966 30.319 14.9225 36.9095 15.0043 37.187L15.0271 37.275C15.1731 37.6747 18.7629 47.2824 28.3769 49.667L29.9062 49.9994L30.7439 47.0267L29.1628 46.6715C21.4778 44.7632 18.269 36.8981 18.0226 36.2768C17.7448 35.2687 17.5679 34.2354 17.4945 33.1923C17.3827 31.695 17.4614 29.6314 18.4709 28.3113C19.2113 27.3462 20.401 26.8803 22.0949 26.8803C25.1795 26.8803 25.6962 28.3889 26.5038 31.518C27.2887 34.5684 28.3676 38.7505 34.3565 39.0508C36.6562 39.1615 38.7323 38.1406 40.1901 36.1878C42.378 33.2596 42.7932 28.7772 41.2453 24.7835C40.0359 21.64 37.703 18.515 34.8535 16.1853Z" fill="#8DC542"/>
<path d="M11.5495 33.8804C11.1902 30.9522 11.6954 26.5288 14.2985 23.6524C16.1043 21.655 18.7291 20.6496 22.0839 20.6496C25.9658 20.6496 28.9043 22.3809 30.8344 25.7864C31.7843 27.4953 32.4119 29.3642 32.6857 31.3001L32.8338 32.8211L35.9401 32.5933C35.943 32.0532 35.9084 31.5134 35.8366 30.9781C35.8252 30.8455 35.4669 27.6171 33.6621 24.3772C31.1709 19.9134 27.1772 17.5506 22.0922 17.5506C17.7952 17.5506 14.3731 18.9153 11.9388 21.6002C8.64092 25.2387 7.96789 30.5308 8.42762 34.2687V34.3028C9.25286 39.9491 11.4273 44.4646 15.2739 48.5028L16.475 49.6645L18.6442 47.4083L17.5736 46.3946C14.1857 42.8452 12.267 38.8732 11.5495 33.8804ZM9.30153 5.86676C10.4488 5.17095 14.5066 3.09491 22.0922 3.09491C31.1564 3.09491 35.1842 6.06867 35.2288 6.09041L36.668 7.00781L38.3485 4.39748L36.9797 3.51115C36.9258 3.4718 36.8699 3.43246 36.814 3.39518C35.5011 2.54095 30.8458 0 22.0922 0C13.0104 0 8.34686 2.74182 7.24309 3.49044L5.83594 4.40266L7.51334 7.01298L9.30153 5.86676Z" fill="#8DC542"/>
<path d="M36.0291 41.3364C32.5739 41.7247 29.7699 41.0599 27.6722 39.3846C24.1268 36.5444 23.6671 31.6075 23.6557 31.5153L23.5284 29.9746L20.3672 30.2055L20.5028 31.7587C20.5256 32.0134 21.0413 38.0489 25.6406 41.7547C27.93 43.6071 30.7909 44.539 34.156 44.539C34.9021 44.5375 35.6475 44.4929 36.3884 44.4054L38.1062 44.189L37.4746 41.1128L36.0291 41.3364Z" fill="#8DC542"/>
</svg>
