<svg width="10" height="6" viewBox="0 0 10 6" fill="none" xmlns="http://www.w3.org/2000/svg">
<path d="M5.00008 5.47933C4.88897 5.47933 4.78119 5.4585 4.67675 5.41683C4.5723 5.37516 4.48564 5.31961 4.41675 5.25016L0.583414 1.41683C0.430637 1.26405 0.354248 1.06961 0.354248 0.833496C0.354248 0.597385 0.430637 0.40294 0.583414 0.250162C0.736192 0.0973847 0.930637 0.0209961 1.16675 0.0209961C1.40286 0.0209961 1.5973 0.0973847 1.75008 0.250162L5.00008 3.50016L8.25008 0.250162C8.40286 0.0973847 8.5973 0.0209961 8.83342 0.0209961C9.06953 0.0209961 9.26397 0.0973847 9.41675 0.250162C9.56952 0.40294 9.64592 0.597385 9.64592 0.833496C9.64592 1.06961 9.56952 1.26405 9.41675 1.41683L5.58341 5.25016C5.50008 5.3335 5.4098 5.39266 5.31258 5.42766C5.21536 5.46266 5.11119 5.47989 5.00008 5.47933Z" fill="black"/>
</svg>
