<svg width="13" height="13" viewBox="0 0 13 13" fill="none" xmlns="http://www.w3.org/2000/svg">
<path fill-rule="evenodd" clip-rule="evenodd" d="M2.87714 5.82888C4.45772 3.02629 5.24801 1.625 6.4998 1.625C7.75105 1.625 8.54189 3.02629 10.1225 5.82888L10.3196 6.17825C11.6332 8.50742 12.2902 9.672 11.6966 10.5235C11.1029 11.375 9.63389 11.375 6.69697 11.375H6.30264C3.36572 11.375 1.89672 11.375 1.30305 10.5235C0.709388 9.672 1.36643 8.50742 2.67997 6.17825L2.87714 5.82888ZM6.4998 3.92708C6.60755 3.92708 6.71088 3.96988 6.78707 4.04607C6.86325 4.12226 6.90605 4.22559 6.90605 4.33333V7.04167C6.90605 7.14941 6.86325 7.25274 6.78707 7.32893C6.71088 7.40512 6.60755 7.44792 6.4998 7.44792C6.39206 7.44792 6.28873 7.40512 6.21254 7.32893C6.13636 7.25274 6.09355 7.14941 6.09355 7.04167V4.33333C6.09355 4.22559 6.13636 4.12226 6.21254 4.04607C6.28873 3.96988 6.39206 3.92708 6.4998 3.92708ZM6.4998 9.20833C6.64346 9.20833 6.78124 9.15127 6.88282 9.04968C6.9844 8.9481 7.04147 8.81033 7.04147 8.66667C7.04147 8.52301 6.9844 8.38523 6.88282 8.28365C6.78124 8.18207 6.64346 8.125 6.4998 8.125C6.35615 8.125 6.21837 8.18207 6.11679 8.28365C6.01521 8.38523 5.95814 8.52301 5.95814 8.66667C5.95814 8.81033 6.01521 8.9481 6.11679 9.04968C6.21837 9.15127 6.35615 9.20833 6.4998 9.20833Z" fill="#856319"/>
</svg>
