<svg width="16" height="16" viewBox="0 0 16 16" fill="none" xmlns="http://www.w3.org/2000/svg">
<path d="M2.18 16.0001C3.38398 16.0001 4.36 15.0241 4.36 13.8201C4.36 12.6162 3.38398 11.6401 2.18 11.6401C0.976019 11.6401 0 12.6162 0 13.8201C0 15.0241 0.976019 16.0001 2.18 16.0001Z" fill="white"/>
<path d="M1.59 6.22984C0.75 6.08984 0 6.77984 0 7.62984C0 8.33984 0.53 8.90984 1.23 9.02984C4.15 9.53984 6.45 11.8498 6.97 14.7698C7.09 15.4698 7.66 15.9998 8.37 15.9998C9.22 15.9998 9.91 15.2498 9.78 14.4098C9.4466 12.3591 8.47608 10.4654 7.00606 8.99716C5.53604 7.52894 3.64113 6.56074 1.59 6.22984ZM1.56 0.519841C0.73 0.429841 0 1.09984 0 1.92984C0 2.65984 0.55 3.25984 1.27 3.32984C7.28 3.92984 12.06 8.70984 12.66 14.7198C12.73 15.4498 13.33 15.9998 14.06 15.9998C14.9 15.9998 15.56 15.2698 15.48 14.4398C14.75 7.09984 8.91 1.24984 1.56 0.519841Z" fill="white"/>
</svg>
