<svg width="23" height="23" viewBox="0 0 23 23" fill="none" xmlns="http://www.w3.org/2000/svg">
<path d="M11.25 0C5.04 0 0 5.04 0 11.25C0 17.46 5.04 22.5 11.25 22.5C17.46 22.5 22.5 17.46 22.5 11.25C22.5 5.04 17.46 0 11.25 0ZM15.75 12.375H12.375V15.75C12.375 16.3687 11.8687 16.875 11.25 16.875C10.6313 16.875 10.125 16.3687 10.125 15.75V12.375H6.75C6.13125 12.375 5.625 11.8687 5.625 11.25C5.625 10.6313 6.13125 10.125 6.75 10.125H10.125V6.75C10.125 6.13125 10.6313 5.625 11.25 5.625C11.8687 5.625 12.375 6.13125 12.375 6.75V10.125H15.75C16.3687 10.125 16.875 10.6313 16.875 11.25C16.875 11.8687 16.3687 12.375 15.75 12.375Z" fill="#ffffff"/>
</svg>
