<svg width="23" height="23" viewBox="0 0 23 23" fill="none" xmlns="http://www.w3.org/2000/svg">
<path d="M11.25 0C5.0625 0 0 5.0625 0 11.25C0 17.4375 5.0625 22.5 11.25 22.5C17.4375 22.5 22.5 17.4375 22.5 11.25C22.5 5.0625 17.4375 0 11.25 0ZM15.2438 15.525L10.6538 12.7013C10.3162 12.4987 10.1137 12.1387 10.1137 11.745V6.46875C10.125 6.0075 10.5075 5.625 10.9688 5.625C11.43 5.625 11.8125 6.0075 11.8125 6.46875V11.475L16.1325 14.0738C16.5375 14.3212 16.6725 14.85 16.425 15.255C16.1775 15.6488 15.6488 15.7725 15.2438 15.525Z" fill="#ffffff"/>
</svg>
